#!OML:ASF I:\Actors\actors\Patient Classification 2\Patient 1\Session 1\actor1.ASF
:FULLY-SPECIFIED
:DEGREES
179
root -0.520578 18.6315 4.9463 -3.30672 -4.54252 -3.00767
lowerback 20.7987 0.540207 0.317568
upperback 11.2229 0.740482 1.47277
thorax 0.524019 0.316467 1.23872
lowerneck -7.25652 -1.47686 0.0980951
upperneck 23.7105 -2.89804 3.47352
head 8.61619 -1.01984 0.87769
rclavicle 4.48508e-015 -4.05024e-015
rhumerus -5.92558 63.4839 -89.3534
rradius 142.495
rwrist -11.7794
rhand -41.2757 -32.3762
rfingers 7.12502
rthumb -14.1973 -61.871
lclavicle 4.48508e-015 -4.05024e-015
lhumerus 9.77474 -62.1375 84.9918
lradius 135.134
lwrist 24.0062
lhand -35.6627 -58.6264
lfingers 7.12502
lthumb -8.7843 -28.8292
rfemur 8.82442 0.690887 16.6713
rtibia -6.36111e-015
rfoot -12.4962 -11.2831
rtoes -9.07651
lfemur -5.5504 -1.06839 -11.7637
ltibia 26.8196
lfoot -19.6636 10.6299
ltoes -56.2889
180
root -0.521478 18.6311 4.95216 -3.32862 -4.52082 -2.99828
lowerback 20.7486 0.570191 0.345666
upperback 11.2654 0.782787 1.4487
thorax 0.59523 0.339665 1.18954
lowerneck -7.43959 -1.5312 0.172518
upperneck 23.5509 -2.99034 3.51434
head 8.59735 -1.05257 0.868095
rclavicle 1.15668e-014 1.99033e-014
rhumerus -5.23851 63.3078 -88.7006
rradius 142.527
rwrist -11.7578
rhand -41.3169 -32.5499
rfingers 7.12502
rthumb -14.237 -62.0419
lclavicle 1.15668e-014 1.99033e-014
lhumerus 10.3211 -62.1657 84.4972
lradius 135.099
lwrist 23.9914
lhand -35.4092 -58.7129
lfingers 7.12502
lthumb -8.53966 -28.9056
rfemur 8.87243 0.671004 16.6616
rtibia 2.62396e-014
rfoot -12.4872 -11.2842
rtoes -9.20454
lfemur -5.50044 -1.06035 -11.7733
ltibia 26.8032
lfoot -19.6589 10.608
ltoes -56.2716
181
root -0.522339 18.6316 4.95693 -3.29606 -4.46184 -2.98244
lowerback 20.7574 0.572701 0.461201
upperback 11.2167 0.806076 1.36652
thorax 0.539667 0.359836 1.03174
lowerneck -7.50411 -1.60953 0.324482
upperneck 23.3575 -3.12312 3.54561
head 8.54465 -1.10075 0.839094
rclavicle 1.34366e-014 -1.15792e-014
rhumerus -4.95541 63.1238 -88.5421
rradius 142.545
rwrist -11.6672
rhand -41.3281 -32.678
rfingers 7.12502
rthumb -14.2478 -62.1693
lclavicle 1.34366e-014 -1.15792e-014
lhumerus 10.6881 -62.2569 84.1295
lradius 135.053
lwrist 24.0177
lhand -35.0803 -58.8002
lfingers 7.12502
lthumb -8.22229 -28.9802
rfemur 8.86384 0.611312 16.6405
rtibia 3.97569e-015
rfoot -12.5011 -11.2618
rtoes -9.1701
lfemur -5.52746 -1.10023 -11.7942
ltibia 26.792
lfoot -19.6579 10.5962
ltoes -56.2653
182
root -0.523094 18.633 4.96108 -3.23841 -4.37789 -2.97417
lowerback 20.7202 0.555599 0.536514
upperback 11.1777 0.797363 1.32954
thorax 0.517185 0.360591 0.951458
lowerneck -7.572 -1.67334 0.346557
upperneck 23.176 -3.22139 3.60436
head 8.49811 -1.14125 0.844696
rclavicle -1.23588e-014 2.40405e-015
rhumerus -4.59234 63.0009 -88.3588
rradius 142.578
rwrist -11.5778
rhand -41.2285 -32.9552
rfingers 7.12502
rthumb -14.1518 -62.4532
lclavicle -1.23588e-014 2.40405e-015
lhumerus 11.0026 -62.2177 83.8776
lradius 135.002
lwrist 23.9886
lhand -34.8485 -58.7674
lfingers 7.12502
lthumb -7.99852 -28.9387
rfemur 8.82935 0.525052 16.6224
rtibia 5.56597e-015
rfoot -12.5435 -11.2237
rtoes -8.97919
lfemur -5.59305 -1.16021 -11.8044
ltibia 26.7863
lfoot -19.6459 10.5864
ltoes -56.2867
183
root -0.523931 18.6341 4.96455 -3.20268 -4.30426 -2.96044
lowerback 20.6983 0.524724 0.517012
upperback 11.1586 0.755049 1.34655
thorax 0.507286 0.33829 0.98886
lowerneck -7.66816 -1.66624 0.327554
upperneck 23.0266 -3.20559 3.61245
head 8.46513 -1.13604 0.850907
rclavicle -1.58096e-014 -1.17034e-014
rhumerus -4.22143 62.9969 -88.0494
rradius 142.693
rwrist -11.5793
rhand -41.1142 -33.1886
rfingers 7.12502
rthumb -14.0416 -62.6943
lclavicle -1.58096e-014 -1.17034e-014
lhumerus 11.2049 -62.1184 83.7536
lradius 134.975
lwrist 23.8198
lhand -34.861 -58.837
lfingers 7.12502
lthumb -8.01066 -29.0088
rfemur 8.81041 0.450466 16.6018
rtibia -1.43125e-014
rfoot -12.5402 -11.2222
rtoes -9.01082
lfemur -5.63661 -1.21813 -11.8212
ltibia 26.7786
lfoot -19.6513 10.5826
ltoes -56.2593
184
root -0.525363 18.6342 4.96748 -3.18697 -4.28041 -2.95935
lowerback 20.7398 0.486083 0.427518
upperback 11.1309 0.691748 1.40929
thorax 0.455559 0.300619 1.1182
lowerneck -7.68014 -1.59106 0.337348
upperneck 22.7953 -3.07582 3.53159
head 8.38451 -1.08617 0.833753
rclavicle -8.87077e-015 -6.27414e-015
rhumerus -4.09656 63.0901 -87.8521
rradius 142.901
rwrist -11.5754
rhand -40.9289 -33.0906
rfingers 7.12502
rthumb -13.8631 -62.6086
lclavicle -8.87077e-015 -6.27414e-015
lhumerus 11.3135 -61.9857 83.7016
lradius 134.993
lwrist 23.6715
lhand -35.1132 -58.811
lfingers 7.12502
lthumb -8.25404 -28.9923
rfemur 8.80557 0.425264 16.6069
rtibia -1.35174e-014
rfoot -12.5067 -11.2483
rtoes -9.22167
lfemur -5.6468 -1.22441 -11.8187
ltibia 26.7612
lfoot -19.6378 10.5774
ltoes -56.2471
185
root -0.529315 18.633 4.9688 -3.24232 -4.45954 -2.96393
lowerback 20.8818 0.516028 0.254383
upperback 11.1256 0.701902 1.49627
thorax 0.376166 0.294502 1.30598
lowerneck -7.75575 -1.55034 0.00305942
upperneck 22.6841 -2.9926 3.66864
head 8.36538 -1.06296 0.943115
rclavicle -1.45361e-015 -1.2424e-016
rhumerus -4.36022 63.2086 -88.1121
rradius 142.892
rwrist -11.4732
rhand -40.7267 -32.6726
rfingers 7.12502
rthumb -13.6682 -62.2038
lclavicle -1.45361e-015 -1.2424e-016
lhumerus 11.4326 -61.719 83.6588
lradius 135.019
lwrist 23.6073
lhand -35.2591 -58.61
lfingers 7.12502
lthumb -8.39481 -28.7969
rfemur 8.84896 0.605492 16.6398
rtibia 2.38542e-015
rfoot -12.5037 -11.2488
rtoes -9.21135
lfemur -5.5319 -1.05329 -11.7899
ltibia 26.7378
lfoot -19.6293 10.5478
ltoes -56.2057
